<svg width="43" height="43" viewBox="0 0 43 43" fill="none" xmlns="http://www.w3.org/2000/svg">
<path d="M21.5 4.03125C18.045 4.03125 14.6676 5.05577 11.7949 6.97527C8.92217 8.89476 6.68316 11.623 5.36099 14.815C4.03882 18.007 3.69288 21.5194 4.36692 24.908C5.04095 28.2966 6.70469 31.4092 9.14774 33.8523C11.5908 36.2953 14.7034 37.9591 18.092 38.6331C21.4806 39.3071 24.993 38.9612 28.185 37.639C31.377 36.3169 34.1053 34.0778 36.0247 31.2051C37.9442 28.3324 38.9688 24.955 38.9688 21.5C38.9639 16.8685 37.1218 12.4281 33.8469 9.15313C30.5719 5.87816 26.1315 4.03614 21.5 4.03125ZM21.5 36.2812C18.5766 36.2812 15.7187 35.4143 13.288 33.7902C10.8572 32.166 8.96267 29.8575 7.84391 27.1565C6.72516 24.4556 6.43244 21.4836 7.00278 18.6163C7.57311 15.749 8.98089 13.1153 11.0481 11.0481C13.1153 8.98088 15.749 7.57311 18.6163 7.00277C21.4836 6.43243 24.4556 6.72515 27.1565 7.84391C29.8575 8.96266 32.166 10.8572 33.7902 13.288C35.4144 15.7187 36.2813 18.5765 36.2813 21.5C36.2768 25.4189 34.7181 29.176 31.947 31.947C29.176 34.7181 25.4189 36.2768 21.5 36.2812ZM29.1695 20.5493C29.2944 20.6741 29.3935 20.8223 29.4611 20.9854C29.5288 21.1486 29.5636 21.3234 29.5636 21.5C29.5636 21.6766 29.5288 21.8514 29.4611 22.0146C29.3935 22.1777 29.2944 22.3259 29.1695 22.4507L23.7945 27.8257C23.5423 28.0778 23.2003 28.2195 22.8438 28.2195C22.4872 28.2195 22.1452 28.0778 21.8931 27.8257C21.6409 27.5736 21.4993 27.2316 21.4993 26.875C21.4993 26.5184 21.6409 26.1764 21.8931 25.9243L24.9753 22.8438H14.7813C14.4249 22.8438 14.0831 22.7022 13.8311 22.4502C13.5791 22.1982 13.4375 21.8564 13.4375 21.5C13.4375 21.1436 13.5791 20.8018 13.8311 20.5498C14.0831 20.2978 14.4249 20.1562 14.7813 20.1562H24.9753L21.8931 17.0757C21.6409 16.8236 21.4993 16.4816 21.4993 16.125C21.4993 15.7684 21.6409 15.4264 21.8931 15.1743C22.1452 14.9222 22.4872 14.7805 22.8438 14.7805C23.2003 14.7805 23.5423 14.9222 23.7945 15.1743L29.1695 20.5493Z" fill="#DC9407"/>
</svg>
