<svg width="44" height="43" viewBox="0 0 44 43" fill="none" xmlns="http://www.w3.org/2000/svg">
<path d="M22 4.03125C18.4647 4.03125 15.0087 5.05577 12.0692 6.97527C9.12966 8.89476 6.83858 11.623 5.48566 14.815C4.13274 18.007 3.77876 21.5194 4.46847 24.908C5.15818 28.2966 6.86061 31.4092 9.36047 33.8523C11.8603 36.2953 15.0454 37.9591 18.5128 38.6331C21.9802 39.3071 25.5742 38.9612 28.8405 37.639C32.1067 36.3169 34.8984 34.0778 36.8625 31.2051C38.8267 28.3324 39.875 24.955 39.875 21.5C39.87 16.8685 37.9851 12.4281 34.634 9.15313C31.2829 5.87816 26.7392 4.03614 22 4.03125ZM22 36.2812C19.0086 36.2812 16.0843 35.4143 13.597 33.7902C11.1097 32.166 9.17111 29.8575 8.02633 27.1565C6.88155 24.4556 6.58203 21.4836 7.16563 18.6163C7.74923 15.749 9.18975 13.1153 11.305 11.0481C13.4203 8.98088 16.1153 7.57311 19.0493 7.00277C21.9832 6.43243 25.0244 6.72515 27.7881 7.84391C30.5518 8.96266 32.914 10.8572 34.576 13.288C36.2379 15.7187 37.125 18.5765 37.125 21.5C37.1205 25.4189 35.5255 29.176 32.69 31.947C29.8545 34.7181 26.01 36.2768 22 36.2812ZM30.25 21.5C30.25 21.8564 30.1051 22.1982 29.8473 22.4502C29.5894 22.7022 29.2397 22.8438 28.875 22.8438H18.4439L21.5978 25.9243C21.7256 26.0491 21.8269 26.1974 21.896 26.3605C21.9652 26.5236 22.0008 26.6984 22.0008 26.875C22.0008 27.0516 21.9652 27.2264 21.896 27.3895C21.8269 27.5526 21.7256 27.7009 21.5978 27.8257C21.4701 27.9506 21.3184 28.0496 21.1515 28.1172C20.9846 28.1847 20.8057 28.2195 20.625 28.2195C20.4443 28.2195 20.2654 28.1847 20.0985 28.1172C19.9316 28.0496 19.7799 27.9506 19.6522 27.8257L14.1522 22.4507C14.0244 22.3259 13.9229 22.1777 13.8537 22.0146C13.7845 21.8514 13.7489 21.6766 13.7489 21.5C13.7489 21.3234 13.7845 21.1486 13.8537 20.9854C13.9229 20.8223 14.0244 20.6741 14.1522 20.5493L19.6522 15.1743C19.9102 14.9222 20.2601 14.7805 20.625 14.7805C20.9899 14.7805 21.3398 14.9222 21.5978 15.1743C21.8558 15.4264 22.0008 15.7684 22.0008 16.125C22.0008 16.4816 21.8558 16.8236 21.5978 17.0757L18.4439 20.1562H28.875C29.2397 20.1562 29.5894 20.2978 29.8473 20.5498C30.1051 20.8018 30.25 21.1436 30.25 21.5Z" fill="white"/>
</svg>
