<svg width="22" height="22" viewBox="0 0 22 22" fill="none" xmlns="http://www.w3.org/2000/svg">
<path d="M11 19.25C15.5563 19.25 19.25 15.5563 19.25 11C19.25 6.44365 15.5563 2.75 11 2.75C6.44365 2.75 2.75 6.44365 2.75 11C2.75 15.5563 6.44365 19.25 11 19.25Z" stroke="white" stroke-width="1.4" stroke-miterlimit="10"/>
<path d="M3.22266 8.25H18.7773" stroke="white" stroke-width="1.4" stroke-linecap="round" stroke-linejoin="round"/>
<path d="M3.22266 13.75H18.7773" stroke="white" stroke-width="1.4" stroke-linecap="round" stroke-linejoin="round"/>
<path d="M11 19.0254C12.8985 19.0254 14.4375 15.4318 14.4375 10.9989C14.4375 6.56591 12.8985 2.97229 11 2.97229C9.10152 2.97229 7.5625 6.56591 7.5625 10.9989C7.5625 15.4318 9.10152 19.0254 11 19.0254Z" stroke="white" stroke-width="1.4" stroke-miterlimit="10"/>
</svg>
