<svg width="22" height="22" viewBox="0 0 22 22" fill="none" xmlns="http://www.w3.org/2000/svg">
<path d="M11 14.4375C12.8985 14.4375 14.4375 12.8985 14.4375 11C14.4375 9.10152 12.8985 7.5625 11 7.5625C9.10152 7.5625 7.5625 9.10152 7.5625 11C7.5625 12.8985 9.10152 14.4375 11 14.4375Z" stroke="white" stroke-width="1.4" stroke-miterlimit="10"/>
<path d="M14.7812 3.09375H7.21875C4.94058 3.09375 3.09375 4.94058 3.09375 7.21875V14.7812C3.09375 17.0594 4.94058 18.9062 7.21875 18.9062H14.7812C17.0594 18.9062 18.9062 17.0594 18.9062 14.7812V7.21875C18.9062 4.94058 17.0594 3.09375 14.7812 3.09375Z" stroke="white" stroke-width="1.4" stroke-linecap="round" stroke-linejoin="round"/>
<path d="M15.4688 7.5625C16.0383 7.5625 16.5 7.10079 16.5 6.53125C16.5 5.96171 16.0383 5.5 15.4688 5.5C14.8992 5.5 14.4375 5.96171 14.4375 6.53125C14.4375 7.10079 14.8992 7.5625 15.4688 7.5625Z" fill="white"/>
</svg>
