<svg width="65" height="65" viewBox="0 0 65 65" fill="none" xmlns="http://www.w3.org/2000/svg">
<circle cx="32.5" cy="32.5" r="32.5" fill="#D9D9D9"/>
<path d="M44.7073 31.2926L32.7073 19.2926C32.6144 19.1996 32.5041 19.1258 32.3828 19.0755C32.2614 19.0252 32.1312 18.9993 31.9998 18.9993C31.8684 18.9993 31.7383 19.0252 31.6169 19.0755C31.4955 19.1258 31.3852 19.1996 31.2923 19.2926L19.2923 31.2926C19.1523 31.4324 19.0569 31.6107 19.0183 31.8047C18.9796 31.9988 18.9994 32.2 19.0752 32.3828C19.1509 32.5657 19.2792 32.7219 19.4438 32.8318C19.6084 32.9416 19.8019 33.0002 19.9998 33.0001H24.9998V36.0001C24.9998 36.2653 25.1052 36.5196 25.2927 36.7072C25.4802 36.8947 25.7346 37.0001 25.9998 37.0001H37.9998C38.265 37.0001 38.5194 36.8947 38.7069 36.7072C38.8945 36.5196 38.9998 36.2653 38.9998 36.0001V33.0001H43.9998C44.1977 33.0002 44.3912 32.9416 44.5558 32.8318C44.7204 32.7219 44.8487 32.5657 44.9244 32.3828C45.0002 32.2 45.02 31.9988 44.9813 31.8047C44.9427 31.6107 44.8473 31.4324 44.7073 31.2926ZM37.9998 31.0001C37.7346 31.0001 37.4802 31.1054 37.2927 31.2929C37.1052 31.4805 36.9998 31.7348 36.9998 32.0001V35.0001H26.9998V32.0001C26.9998 31.7348 26.8945 31.4805 26.7069 31.2929C26.5194 31.1054 26.265 31.0001 25.9998 31.0001H22.4136L31.9998 21.4138L41.5861 31.0001H37.9998ZM38.9998 44.0001C38.9998 44.2653 38.8945 44.5196 38.7069 44.7072C38.5194 44.8947 38.265 45.0001 37.9998 45.0001H25.9998C25.7346 45.0001 25.4802 44.8947 25.2927 44.7072C25.1052 44.5196 24.9998 44.2653 24.9998 44.0001C24.9998 43.7348 25.1052 43.4805 25.2927 43.2929C25.4802 43.1054 25.7346 43.0001 25.9998 43.0001H37.9998C38.265 43.0001 38.5194 43.1054 38.7069 43.2929C38.8945 43.4805 38.9998 43.7348 38.9998 44.0001ZM38.9998 40.0001C38.9998 40.2653 38.8945 40.5196 38.7069 40.7072C38.5194 40.8947 38.265 41.0001 37.9998 41.0001H25.9998C25.7346 41.0001 25.4802 40.8947 25.2927 40.7072C25.1052 40.5196 24.9998 40.2653 24.9998 40.0001C24.9998 39.7348 25.1052 39.4805 25.2927 39.2929C25.4802 39.1054 25.7346 39.0001 25.9998 39.0001H37.9998C38.265 39.0001 38.5194 39.1054 38.7069 39.2929C38.8945 39.4805 38.9998 39.7348 38.9998 40.0001Z" fill="black"/>
</svg>
