<svg width="31" height="31" viewBox="0 0 31 31" fill="none" xmlns="http://www.w3.org/2000/svg">
<circle cx="15.5" cy="15.5" r="15.5" fill="#000215"/>
<path d="M15.2374 11.7257C15.2374 9.79422 16.8615 8.1876 18.793 8.21394C19.4694 8.22175 20.1291 8.42475 20.6929 8.79853C21.2567 9.17232 21.7005 9.70098 21.9711 10.321H25.0702L22.2345 13.1567C22.0515 16.0052 20.7905 18.6771 18.708 20.6292C16.6255 22.5812 13.8777 23.6669 11.0233 23.6655C8.21392 23.6655 7.51158 22.612 7.51158 22.612C7.51158 22.612 10.321 21.5585 11.7256 19.4514C11.7256 19.4514 6.10689 16.6421 7.51158 8.91629C7.51158 8.91629 11.0233 12.428 15.2374 13.1303V11.7257Z" stroke="white" stroke-width="1.4" stroke-linecap="round" stroke-linejoin="round"/>
</svg>
